<?xml version="1.0" encoding="UTF-8" standalone="no"?>
<svg
   id="Layer_1"
   viewBox="0 0 228.57143 228.57143"
   version="1.1"
   sodipodi:docname="Primary_Logo_Green_RGB.svg"
   width="16"
   height="16"
   inkscape:version="1.2.2 (b0a8486541, 2022-12-01)"
   xmlns:inkscape="http://www.inkscape.org/namespaces/inkscape"
   xmlns:sodipodi="http://sodipodi.sourceforge.net/DTD/sodipodi-0.dtd"
   xmlns="http://www.w3.org/2000/svg"
   xmlns:svg="http://www.w3.org/2000/svg">
  <sodipodi:namedview
     id="namedview9"
     pagecolor="#ffffff"
     bordercolor="#000000"
     borderopacity="0.25"
     inkscape:showpageshadow="2"
     inkscape:pageopacity="0.0"
     inkscape:pagecheckerboard="0"
     inkscape:deskcolor="#d1d1d1"
     showgrid="false"
     inkscape:zoom="17.90152"
     inkscape:cx="20.445191"
     inkscape:cy="17.875577"
     inkscape:window-width="1920"
     inkscape:window-height="1043"
     inkscape:window-x="0"
     inkscape:window-y="0"
     inkscape:window-maximized="1"
     inkscape:current-layer="Layer_1" />
  <defs
     id="defs4">
    <style
       id="style2">.cls-1{fill:#1ed760;stroke-width:0px;}</style>
  </defs>
  <path
     class="cls-1"
     d="M 119.30245,1.6156127 C 56.453909,-0.87043584 3.4833538,47.814681 0.99564258,110.35952 -1.502478,172.90436 47.429449,225.60858 110.26758,228.09464 173.11612,230.58068 226.07626,181.89556 228.57438,119.35073 231.06209,56.80589 182.14058,4.0913027 119.30245,1.6156127 Z m 48.068,166.0266073 c -1.41561,2.48605 -4.17395,3.72907 -6.85943,3.35616 -0.8223,-0.11395 -1.64459,-0.38326 -2.41485,-0.81832 -15.05117,-8.52507 -31.4555,-14.07725 -48.75497,-16.50115 -17.29949,-2.42389 -34.609381,-1.58485 -51.440464,2.48605 -3.653501,0.88048 -7.327818,-1.34661 -8.212571,-4.98246 -0.88475,-3.63583 1.353149,-7.2924 5.006651,-8.17288 18.506904,-4.47489 37.534253,-5.3968 56.540774,-2.73465 19.00654,2.66214 37.03464,8.76332 53.5951,18.1378 3.25797,1.85418 4.40293,5.97687 2.55016,9.22945 z m 14.96789,-29.74972 c -2.32117,4.26772 -7.69213,5.86293 -11.98056,3.55298 -17.61175,-9.47805 -36.68073,-15.70354 -56.6761,-18.50035 -19.995376,-2.79681 -40.042789,-2.04063 -59.600986,2.23745 -1.061701,0.22789 -2.112993,0.26932 -3.133059,0.1243 -3.549412,-0.4972 -6.588792,-3.12828 -7.400681,-6.82627 -1.051292,-4.74421 1.96727,-9.43663 6.734516,-10.48284 21.619146,-4.73385 43.779551,-5.57289 65.86711,-2.48604 22.07713,3.08683 43.15502,9.9649 62.61953,20.44774 4.29885,2.30995 5.8914,7.6446 3.57023,11.92268 z m 16.59168,-33.54093 c -2.18585,4.18485 -6.73451,6.34977 -11.16867,5.72827 -1.19702,-0.16575 -2.37321,-0.53865 -3.50778,-1.11872 C 163.74816,98.34361 141.66063,91.330891 118.60506,88.109386 95.549485,84.887881 72.369015,85.571545 49.719393,90.150018 43.827992,91.341249 38.092726,87.550025 36.895709,81.697452 35.698694,75.83452 39.508326,70.126967 45.389318,68.935736 70.474606,63.870412 96.12197,63.114238 121.63403,66.677575 c 25.51204,3.563336 49.95199,11.332238 72.66407,23.089176 5.32931,2.75537 7.40067,9.291599 4.63192,14.595169 z"
     id="path6" />
</svg>
